<svg width="341" height="127" viewBox="0 0 341 127" fill="none" xmlns="http://www.w3.org/2000/svg">
<path fill-rule="evenodd" clip-rule="evenodd" d="M72.5799 15.0083C73.1669 15.4364 73.2944 16.2572 72.8646 16.8416L68.0174 23.4326L75.7897 21.0595C76.3324 20.8938 76.9206 21.0929 77.2497 21.5535C77.5787 22.0141 77.5744 22.6327 77.2391 23.0887L72.3206 29.7766L80.3245 27.4949C80.8724 27.3387 81.459 27.551 81.7784 28.0211C82.0978 28.4911 82.0775 29.1123 81.728 29.5604L76.8842 35.7723L84.4703 33.4561C85.0151 33.2898 85.6056 33.4911 85.9338 33.9551C86.262 34.4191 86.2533 35.0405 85.9124 35.4951L78.6527 45.1759C78.2174 45.7563 77.392 45.8753 76.809 45.4418C76.2261 45.0083 76.1063 44.1864 76.5415 43.606L81.3899 37.1407L73.6775 39.4955C73.1283 39.6632 72.5333 39.4572 72.2069 38.9864C71.8806 38.5156 71.8981 37.8886 72.2504 37.4369L77.1747 31.1217L69.3477 33.353C68.8064 33.5073 68.2264 33.3019 67.9043 32.842C67.5822 32.382 67.5893 31.7691 67.9219 31.3169L72.7692 24.7258L64.9968 27.0989C64.4542 27.2646 63.866 27.0655 63.5369 26.6049C63.2079 26.1443 63.2122 25.5257 63.5475 25.0698L70.7389 15.2913C71.1687 14.7069 71.9929 14.5802 72.5799 15.0083Z" fill="#FF6666"/>
<path fill-rule="evenodd" clip-rule="evenodd" d="M252.141 107.072C252.454 107.727 252.175 108.51 251.519 108.821L248.104 110.442L251.756 111.213C252.308 111.33 252.725 111.784 252.791 112.343C252.857 112.901 252.559 113.44 252.05 113.682L248.529 115.353L252.328 116.231C252.88 116.358 253.289 116.824 253.342 117.386C253.395 117.948 253.082 118.481 252.563 118.709L249.345 120.126L252.81 120.858C253.365 120.975 253.782 121.432 253.846 121.993C253.91 122.554 253.606 123.093 253.092 123.331L246.162 126.541C245.502 126.846 244.719 126.561 244.412 125.904C244.106 125.247 244.392 124.467 245.051 124.161L248.403 122.609L244.811 121.85C244.252 121.732 243.833 121.269 243.774 120.702C243.715 120.136 244.029 119.597 244.551 119.367L247.887 117.898L244.264 117.061C243.718 116.935 243.312 116.479 243.252 115.924C243.191 115.37 243.489 114.838 243.994 114.598L247.409 112.977L243.757 112.206C243.205 112.089 242.788 111.635 242.722 111.076C242.656 110.518 242.954 109.979 243.463 109.738L250.386 106.452C251.042 106.14 251.828 106.418 252.141 107.072Z" fill="#FF6666"/>
<path fill-rule="evenodd" clip-rule="evenodd" d="M10.1968 -5.11749C10.5095 -4.46327 10.2308 -3.68022 9.57424 -3.3685L6.15979 -1.74739L9.81144 -0.976424C10.3635 -0.85986 10.7797 -0.405639 10.846 0.152857C10.9123 0.711352 10.6141 1.24991 10.1046 1.49183L6.58351 3.16357L10.3828 4.04119C10.9349 4.1687 11.3431 4.6339 11.3963 5.19611C11.4495 5.75833 11.1357 6.29145 10.6174 6.51969L7.39891 7.93673L10.8639 8.66829C11.4182 8.78532 11.8352 9.24267 11.8992 9.80374C11.9631 10.3648 11.6597 10.9038 11.1458 11.1418L4.21479 14.3527C3.5553 14.6582 2.77222 14.3731 2.46572 13.716C2.15922 13.0588 2.44537 12.2784 3.10485 11.9729L6.45626 10.4204L2.86466 9.66208C2.30578 9.54408 1.88705 9.08041 1.82802 8.51416C1.76898 7.9479 2.0831 7.40827 2.60569 7.17818L5.94179 5.70933L2.31815 4.8723C1.77285 4.74634 1.36711 4.29057 1.30659 3.73603C1.24608 3.18148 1.54402 2.64938 2.04939 2.40944L5.46384 0.788333L1.81219 0.0173683C1.26009 -0.0991957 0.843967 -0.553417 0.777629 -1.11191C0.711292 -1.67041 1.00949 -2.20897 1.51902 -2.45088L8.44174 -5.73765C9.09829 -6.04937 9.88405 -5.77171 10.1968 -5.11749Z" fill="#FFD700"/>
<path fill-rule="evenodd" clip-rule="evenodd" d="M338.246 -5.11599C338.559 -4.46174 338.28 -3.67876 337.624 -3.36716L334.209 -1.74662L337.861 -0.975125C338.413 -0.858481 338.83 -0.404212 338.896 0.154275C338.963 0.712762 338.664 1.25126 338.155 1.49309L334.634 3.16424L338.434 4.0424C338.986 4.17 339.394 4.63524 339.447 5.19744C339.5 5.75965 339.187 6.29271 338.668 6.52086L335.45 7.93736L338.915 8.66942C339.47 8.78654 339.887 9.24393 339.951 9.80499C340.015 10.3661 339.711 10.905 339.198 11.1429L332.267 14.3526C331.607 14.658 330.824 14.3728 330.518 13.7157C330.211 13.0585 330.497 12.2782 331.157 11.9728L334.508 10.4208L330.916 9.66197C330.357 9.54389 329.938 9.08017 329.879 8.51393C329.82 7.94768 330.134 7.40811 330.657 7.17811L333.993 5.70982L330.369 4.87226C329.823 4.74622 329.418 4.29041 329.357 3.73588C329.296 3.18134 329.594 2.64931 330.1 2.40945L333.514 0.788914L329.862 0.0174214C329.31 -0.0992224 328.894 -0.553492 328.827 -1.11198C328.761 -1.67047 329.059 -2.20896 329.568 -2.45079L336.491 -5.7364C337.147 -6.04801 337.933 -5.77024 338.246 -5.11599Z" fill="#FF6666"/>
<path fill-rule="evenodd" clip-rule="evenodd" d="M278.779 3.59943C278.598 4.11192 278.034 4.38121 277.519 4.20091L272.115 2.30779L275.272 7.00317C275.508 7.35516 275.492 7.81847 275.231 8.15321C274.97 8.48795 274.524 8.61894 274.122 8.47836L268.633 6.55543L271.779 11.4297C272.009 11.7875 271.983 12.2525 271.714 12.5824C271.444 12.9123 270.992 13.0323 270.593 12.8799L265.456 10.9165L268.531 15.4912C268.768 15.8446 268.751 16.31 268.487 16.6449C268.224 16.9797 267.774 17.1082 267.373 16.9633L259.222 14.0224C258.709 13.8374 258.444 13.2733 258.63 12.7625C258.816 12.2517 259.382 11.9876 259.895 12.1727L265.211 14.0908L262.081 9.43421C261.842 9.07797 261.862 8.60832 262.13 8.27328C262.399 7.93823 262.855 7.81497 263.257 7.96858L268.486 9.96709L265.415 5.20819C265.187 4.8547 265.21 4.39594 265.471 4.0663C265.733 3.73666 266.176 3.60895 266.574 3.7484L271.978 5.64151L268.822 0.946143C268.586 0.594152 268.602 0.130841 268.863 -0.203898C269.124 -0.538636 269.57 -0.669629 269.972 -0.529049L278.176 2.345C278.69 2.52531 278.961 3.08693 278.779 3.59943Z" fill="#5BDCC5"/>
<path fill-rule="evenodd" clip-rule="evenodd" d="M113.44 10.4264C114.158 10.3074 114.836 10.7903 114.956 11.5051L117.119 24.4273C117.239 25.1421 116.754 25.8181 116.037 25.9371C115.32 26.0562 114.641 25.5732 114.521 24.8584L112.358 11.9362C112.238 11.2214 112.723 10.5454 113.44 10.4264Z" fill="#FFD700"/>
<path fill-rule="evenodd" clip-rule="evenodd" d="M206.495 95.4565C206.997 95.9815 206.975 96.8117 206.448 97.3107L196.91 106.337C196.383 106.836 195.549 106.815 195.048 106.29C194.547 105.765 194.568 104.935 195.095 104.436L204.633 95.4094C205.16 94.9103 205.994 94.9314 206.495 95.4565Z" fill="#5BDCC5"/>
<path fill-rule="evenodd" clip-rule="evenodd" d="M101.999 86.2515C101.485 86.7645 100.651 86.7659 100.136 86.2545L95.4765 81.6308C94.9612 81.1194 94.9599 80.289 95.4735 79.776C95.9871 79.2629 96.8212 79.2616 97.3365 79.773L101.996 84.3966C102.511 84.908 102.512 85.7385 101.999 86.2515Z" fill="#5BDCC5"/>
<path fill-rule="evenodd" clip-rule="evenodd" d="M23.8875 58.347C23.271 57.9626 23.0845 57.1532 23.4708 56.5392L26.9626 50.9892C27.3489 50.3752 28.1618 50.1891 28.7783 50.5736C29.3947 50.9581 29.5813 51.7675 29.195 52.3814L25.7032 57.9314C25.3168 58.5454 24.504 58.7315 23.8875 58.347Z" fill="#5BDCC5"/>
<path fill-rule="evenodd" clip-rule="evenodd" d="M241.051 58.9818C241.011 58.2582 241.567 57.6393 242.293 57.5993L248.862 57.238C249.589 57.1981 250.21 57.7523 250.25 58.4759C250.29 59.1994 249.734 59.8184 249.008 59.8583L242.438 60.2196C241.712 60.2596 241.091 59.7054 241.051 58.9818Z" fill="#FFD700"/>
<path fill-rule="evenodd" clip-rule="evenodd" d="M158.957 96.404C159.19 97.0905 158.821 97.8349 158.132 98.0666L151.203 100.397C150.513 100.629 149.766 100.26 149.533 99.574C149.3 98.8875 149.67 98.1431 150.359 97.9113L157.288 95.5806C157.977 95.3488 158.724 95.7175 158.957 96.404Z" fill="#FFD700"/>
<path fill-rule="evenodd" clip-rule="evenodd" d="M325.123 59.3133C325.818 59.5267 326.207 60.261 325.993 60.9534L323.838 67.91C323.624 68.6024 322.886 68.9908 322.191 68.7774C321.496 68.564 321.107 67.8297 321.321 67.1373L323.476 60.1807C323.69 59.4882 324.428 59.0999 325.123 59.3133Z" fill="#FF6666"/>
<path fill-rule="evenodd" clip-rule="evenodd" d="M339.167 122.611C339.4 123.298 339.03 124.042 338.341 124.274L331.484 126.58C330.795 126.812 330.048 126.444 329.815 125.757C329.582 125.071 329.952 124.326 330.641 124.094L337.497 121.788C338.186 121.556 338.934 121.925 339.167 122.611Z" fill="#FFD700"/>
<path d="M213.484 21.7801C213.484 23.5893 212.011 25.056 210.194 25.056C208.377 25.056 206.904 23.5893 206.904 21.7801C206.904 19.9708 208.377 18.5042 210.194 18.5042C212.011 18.5042 213.484 19.9708 213.484 21.7801Z" fill="#FFD700"/>
<path d="M218.749 96.4713C218.749 97.5568 217.865 98.4369 216.775 98.4369C215.685 98.4369 214.801 97.5568 214.801 96.4713C214.801 95.3857 215.685 94.5057 216.775 94.5057C217.865 94.5057 218.749 95.3857 218.749 96.4713Z" fill="#5BDCC5"/>
<path d="M126.619 112.851C126.619 115.022 124.851 116.782 122.671 116.782C120.49 116.782 118.722 115.022 118.722 112.851C118.722 110.68 120.49 108.92 122.671 108.92C124.851 108.92 126.619 110.68 126.619 112.851Z" fill="#5BDCC5"/>
<path d="M7.07674 122.024C7.07674 123.471 5.89822 124.644 4.44445 124.644C2.99068 124.644 1.81216 123.471 1.81216 122.024C1.81216 120.576 2.99068 119.403 4.44445 119.403C5.89822 119.403 7.07674 120.576 7.07674 122.024Z" fill="#5BDCC5"/>
<path d="M55.7739 76.1605C55.7739 77.2461 54.89 78.1261 53.7997 78.1261C52.7094 78.1261 51.8255 77.2461 51.8255 76.1605C51.8255 75.075 52.7094 74.195 53.7997 74.195C54.89 74.195 55.7739 75.075 55.7739 76.1605Z" fill="#FF6666"/>
</svg>
