<svg width="242" height="120" viewBox="0 0 242 120" fill="none" xmlns="http://www.w3.org/2000/svg">
<path d="M28.667 6.45703V2.89453H20.0947V6.45703C20.0391 13.4707 14.417 21.5977 2.28223 23.7129L5.67773 30.3369C14.751 28.5835 21.0688 23.7129 24.3809 17.5342C27.665 23.7686 33.9272 28.6113 43.084 30.3369L46.5908 23.7129C34.1777 21.6533 28.6392 13.582 28.667 6.45703ZM1.33594 45.0322H48.0381V38.4639H1.33594V45.0322Z" fill="black"/>
<path d="M76.8164 4.11914H52.5469V39.7441H56.9443C65.6279 39.6885 72.6973 39.4937 80.4346 38.3525L79.7109 31.9512C73.1704 32.9531 67.4092 33.2593 60.6738 33.3149V24.6035H76.2041V18.3135H60.6738V10.6318H76.8164V4.11914ZM83.1064 51.0996H91.1221V25.6611H98.3584V19.0371H91.1221V0H83.1064V51.0996Z" fill="black"/>
<path d="M141.609 25.9951H113.388V20.9297H139.995V14.6953H113.388V10.0195H141.22V3.5625H105.205V32.2852H141.609V25.9951ZM99.8613 45.3662H146.563V38.9092H99.8613V45.3662Z" fill="black"/>
<path d="M163.43 2.11523C155.553 2.0874 149.681 7.29199 149.736 14.3057C149.681 21.4585 155.553 26.6353 163.43 26.6631C169.887 26.6353 175.147 22.9336 176.594 17.4229H184.415V27.498H192.375V0H184.415V11.1328H176.566C175.063 5.76123 169.859 2.0874 163.43 2.11523ZM157.307 14.3057C157.307 10.771 159.839 8.73926 163.43 8.73926C166.909 8.73926 169.386 10.771 169.386 14.3057C169.386 17.8403 166.909 19.9556 163.43 19.9277C159.839 19.9556 157.307 17.8403 157.307 14.3057ZM157.975 50.543H192.375V29.6133H184.415V34.0107H165.823V29.6133H157.975V50.543ZM165.823 44.0859V40.1338H184.415V44.0859H165.823Z" fill="black"/>
<path d="M44.5869 68H36.627V80.1904H29.3906V86.6475H36.627V98.3369H44.5869V68ZM0.834961 92.1582L5.00977 98.5039C10.9937 96.5 14.918 92.52 17.1445 87.5938C19.3711 91.9355 23.1006 95.4424 28.667 97.2236L32.5635 90.9336C24.8262 88.373 21.542 82.8066 21.1523 77.2959H30.8379V70.8945H3.11719V77.2959H12.8862C12.4966 83.252 9.10107 89.4585 0.834961 92.1582ZM9.2959 109.247C9.2959 115.509 16.0312 119.183 26.9414 119.211C37.9907 119.183 44.7261 115.509 44.7539 109.247C44.7261 102.985 37.9907 99.311 26.9414 99.2832C16.0312 99.311 9.2959 102.985 9.2959 109.247ZM17.2559 109.247C17.2559 106.547 20.5679 105.351 26.9414 105.351C33.4541 105.351 36.7383 106.547 36.7939 109.247C36.7383 111.891 33.4541 113.116 26.9414 113.088C20.5679 113.116 17.2559 111.891 17.2559 109.247Z" fill="black"/>
<path d="M67.0195 79.8564V79.7451H74.4229V73.5107H67.0195V68.501H59.4492V73.5107H51.9902V79.7451H59.4492V79.8564C59.3936 85.0054 56.8608 89.9595 50.4316 92.3252L54.0498 98.2256C58.5864 96.5835 61.5923 93.6055 63.3735 89.9316C65.1548 93.2715 68.105 95.9434 72.4746 97.3906L76.0371 91.4346C69.5801 89.4307 66.9917 84.6436 67.0195 79.8564ZM59.0596 107.688H86.6133V119.1H94.6289V101.231H59.0596V107.688ZM76.2598 99.1719H83.8301V87.0371H87.0029V99.2832H94.6289V68.0557H87.0029V80.6357H83.8301V68.835H76.2598V99.1719Z" fill="black"/>
<path d="M120.401 73.5107H101.253V108.189H104.76C112.052 108.162 116.978 108.106 122.795 107.076L122.127 100.675C117.646 101.371 113.805 101.621 108.879 101.732V93.2715H118.509V87.2041H108.879V79.8008H120.401V73.5107ZM120.735 92.7705H125.912V116.873H133.315V68.7793H125.912V86.4248H120.735V92.7705ZM136.6 119.1H144.281V68H136.6V119.1Z" fill="black"/>
<path d="M176.455 74.457V70.8945H167.883V74.457C167.827 81.4707 162.205 89.5977 150.07 91.7129L153.466 98.3369C162.539 96.5835 168.857 91.7129 172.169 85.5342C175.453 91.7686 181.715 96.6113 190.872 98.3369L194.379 91.7129C181.966 89.6533 176.427 81.582 176.455 74.457ZM149.124 113.032H195.826V106.464H149.124V113.032Z" fill="black"/>
<path d="M241.693 68H233.789V85.6455H225.384V92.0469H233.789V119.211H241.693V68ZM200.725 107.911H204.844C213.221 107.855 220.04 107.633 227.499 106.52L226.72 100.174C220.68 101.064 215.169 101.315 208.74 101.371V92.6035H222.879V86.3691H208.74V78.6318H224.604V72.1748H200.725V107.911Z" fill="black"/>
</svg>
